<?xml version="1.0" standalone="no"?>
<!DOCTYPE svg PUBLIC "-//W3C//DTD SVG 20010904//EN"
 "http://www.w3.org/TR/2001/REC-SVG-20010904/DTD/svg10.dtd">
<svg version="1.0" xmlns="http://www.w3.org/2000/svg"
 width="400.000000pt" height="400.000000pt" viewBox="0 0 400.000000 400.000000"
 preserveAspectRatio="xMidYMid meet">
<metadata>
Created by potrace 1.11, written by Peter Selinger 2001-2013
</metadata>
<g transform="translate(0.000000,400.000000) scale(0.100000,-0.100000)"
fill="#000000" stroke="none">
<path d="M2085 3710 c-27 -5 -72 -11 -100 -15 -27 -4 -53 -9 -56 -11 -3 -2
-21 -6 -40 -9 -172 -29 -420 -132 -529 -220 -43 -34 -130 -128 -130 -140 0 -7
28 -48 63 -92 34 -45 105 -137 158 -206 l96 -125 49 27 c55 30 148 71 173 76
9 1 34 8 56 14 196 52 378 29 479 -59 55 -49 80 -110 81 -200 0 -129 -56 -238
-242 -470 -139 -173 -191 -251 -243 -365 -22 -47 -54 -99 -72 -116 -109 -103
-333 -129 -474 -56 -52 27 -100 89 -124 163 -101 306 -204 417 -285 309 -14
-17 -25 -35 -25 -39 0 -4 -21 -30 -47 -58 -107 -112 -106 -166 4 -248 69 -52
75 -59 62 -79 -5 -9 -18 -29 -29 -46 -28 -45 -24 -74 19 -127 9 -12 11 -25 4
-45 -5 -15 -8 -34 -7 -40 1 -7 2 -20 3 -28 0 -8 14 -29 30 -47 40 -46 44 -69
26 -133 -35 -118 3 -233 93 -279 66 -34 250 -40 388 -12 12 2 37 7 55 10 46 8
77 14 97 20 9 3 28 7 42 10 42 7 279 72 405 111 124 38 287 99 365 138 l45 22
1 90 c0 50 4 110 8 135 3 25 6 47 6 50 -2 14 44 132 72 185 57 111 128 203
279 360 222 231 316 378 355 560 8 39 10 218 2 270 -31 208 -149 414 -313 541
-85 67 -242 138 -345 158 -19 3 -46 9 -60 12 -38 10 -338 12 -395 4z"/>
<path d="M2080 937 c-94 -27 -157 -85 -202 -183 -34 -76 -32 -208 5 -288 31
-67 93 -130 157 -159 67 -31 215 -30 287 2 61 27 126 93 156 159 31 67 32 226
1 293 -53 114 -154 180 -283 186 -42 1 -96 -3 -121 -10z"/>
</g>
</svg>
